<?xml version="1.0" encoding="iso-8859-1"?>
<!-- Generator: Adobe Illustrator 26.1.0, SVG Export Plug-In . SVG Version: 6.00 Build 0)  -->
<svg version="1.1" xmlns="http://www.w3.org/2000/svg" xmlns:xlink="http://www.w3.org/1999/xlink" x="0px" y="0px"
	 viewBox="0 0 100 100" style="enable-background:new 0 0 100 100;" xml:space="preserve">
<g id="Layer_2" style="display:none;">
</g>
<g id="Layer_1">
	<g>
		<path style="fill:#4A254B;" d="M28.965,79.887c13.048,2.788,26.014,5.374,38.866,7.551c5.824,0.986,11.379-2.843,12.572-8.628
			c3.324-16.129,6.475-32.137,9.135-47.952c0.975-5.795-2.794-11.336-8.541-12.564c-13.048-2.788-26.014-5.374-38.866-7.551
			c-5.824-0.986-11.379,2.843-12.572,8.628c-3.324,16.129-6.475,32.137-9.135,47.952C19.45,73.119,23.218,78.659,28.965,79.887z"/>
	</g>
	<g>
		<path style="fill:#6B96D6;" d="M66.546,87.599c-14.167,0.566-28.333,0.566-42.5,0c-5.25-0.21-9.432-4.458-9.6-9.71
			c-0.55-17.16-0.55-34.32,0-51.48c0.168-5.252,4.35-9.5,9.6-9.71c14.167-0.566,28.333-0.566,42.5,0c5.25,0.21,9.432,4.458,9.6,9.71
			c0.55,17.16,0.55,34.32,0,51.48C75.978,83.141,71.797,87.39,66.546,87.599z"/>
	</g>
	<g>
		<path style="fill:#4A254B;" d="M45.306,82.798c2.404,0,4.382-1.825,4.624-4.165c0.027-0.265-0.189-0.484-0.455-0.484
			c-1.588,0-6.667,0-8.304,0c-0.283,0-0.517,0.232-0.486,0.513C40.941,80.989,42.912,82.798,45.306,82.798z"/>
	</g>
	<g>
		<circle style="fill:#FFFFFF;" cx="33.297" cy="74.649" r="4.5"/>
	</g>
	<g>
		<circle style="fill:#4A254B;" cx="33.267" cy="74.674" r="1.961"/>
	</g>
	<g>
		<circle style="fill:#FFFFFF;" cx="57.297" cy="74.649" r="4.5"/>
	</g>
	<g>
		<circle style="fill:#4A254B;" cx="57.345" cy="74.674" r="1.961"/>
	</g>
	<g>
		<path style="fill:#C9DCF4;" d="M63.249,63.974c-12.071,2.131-24.143,2.131-36.214,0c-3.393-0.599-6.1-3.173-6.921-6.519
			c-2.237-9.113-2.237-18.225,0-27.338c0.821-3.346,3.528-5.92,6.921-6.519c12.071-2.131,24.143-2.131,36.214,0
			c3.393,0.599,6.1,3.173,6.921,6.519c2.237,9.113,2.237,18.225,0,27.338C69.349,60.802,66.642,63.375,63.249,63.974z"/>
	</g>
	<g>
		<g>
			<path style="fill:#ABD451;" d="M28.263,37.614c-1.932,0-3.808,0.171-5.622,0.467c-0.666,6.269-0.24,12.565,1.291,18.798
				c0.377,1.538,1.607,2.705,3.132,2.975c6,1.059,12.082,1.596,18.078,1.596c3.014,0,6.049-0.136,9.085-0.406
				c0.3-1.188,0.469-2.411,0.469-3.665C54.696,46.463,42.861,37.614,28.263,37.614z"/>
		</g>
		<g>
			<circle style="fill:#FEC933;" cx="55.08" cy="34.521" r="4.165"/>
		</g>
		<g>
			<path style="fill:#ABD451;" d="M61.289,47.511c-9.228,0-16.718,6.137-16.843,13.746h6.86c3.975-0.24,7.962-0.707,11.914-1.404
				c1.525-0.269,2.755-1.437,3.132-2.974c0.677-2.757,1.137-5.527,1.385-8.302C65.749,47.895,63.575,47.511,61.289,47.511z"/>
		</g>
		<g>
			<path style="fill:#4A254B;" d="M54.279,53.714c-0.23,0-0.438-0.16-0.488-0.395c-0.309-1.436-0.865-2.839-1.655-4.172
				c-0.141-0.237-0.062-0.544,0.175-0.685c0.24-0.142,0.545-0.062,0.685,0.175c0.845,1.426,1.441,2.931,1.772,4.471
				c0.058,0.271-0.114,0.536-0.384,0.595C54.349,53.71,54.313,53.714,54.279,53.714z"/>
		</g>
	</g>
</g>
</svg>